<svg xmlns="http://www.w3.org/2000/svg" viewBox="0 0 72 72" aria-hidden="true"><path d="M64 0H8C3.58 0 0 3.58 0 8v56c0 4.42 3.58 8 8 8h56c4.42 0 8-3.58 8-8V8c0-4.42-3.58-8-8-8Z" fill="#0A66C2"/><path d="M22.2 60V23.5H10.05V60h12.15ZM16.1 18.5c3.9 0 6.4-2.6 6.4-5.9-.1-3.4-2.5-5.9-6.3-5.9s-6.4 2.5-6.4 5.9c0 3.3 2.5 5.9 6.2 5.9h.1ZM29 60h12.15V39.6c0-1.1.1-2.2.4-3 .8-2.1 2.8-4.3 6.1-4.3 4.3 0 6 3.3 6 8.1V60h12.15V39c0-11.2-6-16.4-14-16.4-6.5 0-9.4 3.6-11 6.1h.1v-5.3H29c.15 3.4 0 36.5 0 36.5Z" fill="#fff"/></svg>
