<svg width="120" height="36" viewBox="0 0 120 36" fill="none" xmlns="http://www.w3.org/2000/svg">
<path d="M69.7985 6.62695H63.686V12.7544H69.7985V6.62695Z" fill="#F6F6F6"/>
<path d="M88.2938 6.62695H82.1814V12.7544H88.2938V6.62695Z" fill="#F6F6F6"/>
<path d="M82.1808 12.7559H76.0684V18.8833H82.1808V12.7559Z" fill="#F6F6F6"/>
<path d="M76.0677 18.8828H69.9553V25.0103H76.0677V18.8828Z" fill="#F6F6F6"/>
<path d="M63.8424 29.3725V31.1372V35.5H88.2921V29.3725H69.9548V25.0098H63.8424V29.3725Z" fill="#F6F6F6"/>
<path d="M82.0239 0.5H69.7991V6.62745H82.0239V0.5Z" fill="#F6F6F6"/>
<path d="M38.0923 6.62745H54.0824V0.5H38.0923H31.9799V35.5H38.0923H54.0824V29.3725H38.0923V21.0637H54.0824V14.9363H38.0923V6.62745Z" fill="#F6F6F6"/>
<path d="M60.1913 6.62695H54.0789V14.9358H60.1913V6.62695Z" fill="#F6F6F6"/>
<path d="M60.1913 21.0645H54.0789V29.3733H60.1913V21.0645Z" fill="#F6F6F6"/>
<path d="M120 6.62695H113.888V14.9358H120V6.62695Z" fill="#F6F6F6"/>
<path d="M120 21.0645H113.888V29.3733H120V21.0645Z" fill="#F6F6F6"/>
<path d="M97.901 14.9363V6.62745H113.891V0.5H97.901H91.7886V35.5H97.901H113.891V29.3725H97.901V21.0637H113.891V14.9363H97.901Z" fill="#F6F6F6"/>
<path d="M6.11243 6.62745H22.1025V0.5H6.11243H0V35.5H6.11243V21.0637H15.9901V27.1912H22.1025V35.5H28.215V21.0637H22.1025V14.9363H6.11243V6.62745Z" fill="#F6F6F6"/>
<path d="M28.2192 6.62695H22.1068V14.9358H28.2192V6.62695Z" fill="#F6F6F6"/>
</svg>
