<?xml version="1.0" encoding="UTF-8"?>
<svg xmlns="http://www.w3.org/2000/svg" width="901" height="294" viewBox="0 0 901 294" fill="none">
  <mask id="mask0_2034_7254" style="mask-type:luminance" maskUnits="userSpaceOnUse" x="0" y="7" width="312" height="280">
    <path d="M311.885 7.31836H0V286.679H311.885V7.31836Z" fill="white"></path>
  </mask>
  <g mask="url(#mask0_2034_7254)">
    <path d="M9.50781 211.658C9.50781 217.941 14.6187 223.043 20.9136 223.043H82.4763C115.885 223.043 143.49 248.318 147.1 280.742C147.475 284.113 150.305 286.679 153.712 286.679H206.929C210.597 286.679 213.571 283.711 213.571 280.05C213.571 236.012 177.794 200.303 133.673 200.303H20.9136C14.6187 200.303 9.50781 205.404 9.50781 211.687V211.658Z" fill="black"></path>
    <path d="M30.1171 249.039C53.9973 249.039 74.3834 264.171 82.1798 285.296C82.4685 286.103 83.2482 286.65 84.1144 286.65H133.202C134.387 286.65 135.311 285.642 135.253 284.46C133.462 256.965 110.478 235.119 82.4685 235.119H6.959C3.11856 235.119 0 238.231 0 242.064C0 245.898 3.11856 249.011 6.959 249.011H30.1171V249.039Z" fill="black"></path>
    <path d="M31.8868 286.648C39.5734 286.648 45.8047 280.429 45.8047 272.757C45.8047 265.085 39.5734 258.865 31.8868 258.865C24.2 258.865 17.9688 265.085 17.9688 272.757C17.9688 280.429 24.2 286.648 31.8868 286.648Z" fill="black"></path>
    <path d="M191.676 32.42C186.218 29.2785 179.23 31.1519 176.083 36.599L145.301 89.8025C128.583 118.681 92.8641 129.892 62.9198 116.807C59.8012 115.453 56.1629 116.606 54.4592 119.546L27.8359 165.544C25.9879 168.714 27.0852 172.778 30.2615 174.622C68.4927 196.641 117.35 183.585 139.411 145.426L195.776 47.9544C198.924 42.5073 197.047 35.5327 191.589 32.3912L191.676 32.42Z" fill="black"></path>
    <path d="M148.943 31.5275C137.017 52.1632 113.685 62.2217 91.4511 58.4174C90.5847 58.2732 89.7478 58.6479 89.3147 59.3973L64.7702 101.822C64.1927 102.83 64.5681 104.156 65.6366 104.675C90.3829 116.895 120.846 107.932 134.822 83.7221L172.563 18.4428C174.497 15.1285 173.342 10.863 170.022 8.96079C166.701 7.02979 162.427 8.18262 160.521 11.4971L148.943 31.4987V31.5275Z" fill="black"></path>
    <path d="M127.488 35.1017C135.175 35.1017 141.406 28.8822 141.406 21.21C141.406 13.5379 135.175 7.31836 127.488 7.31836C119.801 7.31836 113.57 13.5379 113.57 21.21C113.57 28.8822 119.801 35.1017 127.488 35.1017Z" fill="black"></path>
    <path d="M256.114 279.533C261.571 276.391 263.448 269.416 260.301 263.969L229.519 210.766C212.801 181.887 220.943 145.371 247.278 126.061C250.021 124.044 250.83 120.326 249.126 117.386L222.503 71.388C220.655 68.2177 216.583 67.1225 213.407 68.9671C175.176 90.9861 162.095 139.78 184.156 177.91L240.521 275.382C243.668 280.829 250.656 282.703 256.114 279.561V279.533Z" fill="black"></path>
    <path d="M278.267 243.016C266.342 222.38 269.258 197.191 283.696 179.87C284.244 179.207 284.331 178.284 283.898 177.535L259.354 135.111C258.776 134.102 257.42 133.785 256.437 134.419C233.452 149.723 226.002 180.504 240.007 204.713L277.748 269.992C279.682 273.306 283.927 274.459 287.248 272.528C290.569 270.597 291.723 266.361 289.789 263.047L278.209 243.045L278.267 243.016Z" fill="black"></path>
    <path d="M297.949 243.506C305.635 243.506 311.867 237.287 311.867 229.614C311.867 221.942 305.635 215.723 297.949 215.723C290.262 215.723 284.031 221.942 284.031 229.614C284.031 237.287 290.262 243.506 297.949 243.506Z" fill="black"></path>
  </g>
  <path d="M449.2 89.618C460.74 89.618 470.824 91.9009 479.453 96.4665C488.082 101.032 494.735 107.466 499.414 115.767C504.196 123.964 506.587 133.459 506.587 144.25C506.587 154.938 504.196 164.432 499.414 172.734C494.735 181.035 488.03 187.468 479.297 192.034C470.668 196.599 460.636 198.882 449.2 198.882H408.188V89.618H449.2ZM447.485 175.847C457.569 175.847 465.418 173.097 471.032 167.597C476.646 162.098 479.453 154.315 479.453 144.25C479.453 134.185 476.646 126.351 471.032 120.747C465.418 115.144 457.569 112.343 447.485 112.343H434.854V175.847H447.485ZM513.068 155.301C513.068 146.377 514.732 138.543 518.058 131.798C521.489 125.054 526.115 119.865 531.937 116.234C537.759 112.602 544.257 110.786 551.43 110.786C557.564 110.786 562.918 112.031 567.492 114.522C572.17 117.012 575.757 120.281 578.252 124.327V112.031H604.918V198.882H578.252V186.586C575.653 190.633 572.014 193.902 567.336 196.392C562.762 198.882 557.408 200.127 551.274 200.127C544.205 200.127 537.759 198.312 531.937 194.68C526.115 190.944 521.489 185.704 518.058 178.959C514.732 172.111 513.068 164.225 513.068 155.301ZM578.252 155.457C578.252 148.816 576.381 143.576 572.638 139.736C569 135.897 564.529 133.977 559.227 133.977C553.925 133.977 549.403 135.897 545.66 139.736C542.022 143.472 540.202 148.66 540.202 155.301C540.202 161.942 542.022 167.234 545.66 171.177C549.403 175.016 553.925 176.936 559.227 176.936C564.529 176.936 569 175.016 572.638 171.177C576.381 167.338 578.252 162.098 578.252 155.457ZM709.978 112.031L655.399 240.129H626.705L646.666 195.925L611.267 112.031H641.052L661.168 166.352L681.129 112.031H709.978ZM728.978 200.127C724.3 200.127 720.453 198.779 717.438 196.081C714.527 193.279 713.072 189.855 713.072 185.808C713.072 181.657 714.527 178.181 717.438 175.38C720.453 172.578 724.3 171.177 728.978 171.177C733.552 171.177 737.295 172.578 740.206 175.38C743.221 178.181 744.728 181.657 744.728 185.808C744.728 189.855 743.221 193.279 740.206 196.081C737.295 198.779 733.552 200.127 728.978 200.127ZM752.092 155.301C752.092 146.377 753.756 138.543 757.082 131.798C760.513 125.054 765.139 119.865 770.961 116.234C776.783 112.602 783.281 110.786 790.454 110.786C796.588 110.786 801.942 112.031 806.516 114.522C811.194 117.012 814.781 120.281 817.276 124.327V112.031H843.942V198.882H817.276V186.586C814.677 190.633 811.038 193.902 806.36 196.392C801.786 198.882 796.432 200.127 790.298 200.127C783.229 200.127 776.783 198.312 770.961 194.68C765.139 190.944 760.513 185.704 757.082 178.959C753.756 172.111 752.092 164.225 752.092 155.301ZM817.276 155.457C817.276 148.816 815.405 143.576 811.662 139.736C808.024 135.897 803.553 133.977 798.251 133.977C792.949 133.977 788.427 135.897 784.684 139.736C781.046 143.472 779.226 148.66 779.226 155.301C779.226 161.942 781.046 167.234 784.684 171.177C788.427 175.016 792.949 176.936 798.251 176.936C803.553 176.936 808.024 175.016 811.662 171.177C815.405 167.338 817.276 162.098 817.276 155.457ZM873.528 103.004C868.85 103.004 865.001 101.655 861.987 98.9569C859.076 96.1552 857.62 92.731 857.62 88.6842C857.62 84.5336 859.076 81.1093 861.987 78.4115C865.001 75.6098 868.85 74.209 873.528 74.209C878.102 74.209 881.845 75.6098 884.756 78.4115C887.771 81.1093 889.278 84.5336 889.278 88.6842C889.278 92.731 887.771 96.1552 884.756 98.9569C881.845 101.655 878.102 103.004 873.528 103.004ZM886.783 112.031V198.882H860.115V112.031H886.783Z" fill="black"></path>
</svg>
